                                                                        S      1
,,9HCANSAT v2,36H45bb1e5a-2610-4cdc-aa96-3d8371ebbe57,7Hunknown,7HunknowG      1
n,32,38,7,99,15,,1.,2,2HMM,1,0.08,15H20260225.202940,0.01,10000.,7HunknoG      2
wn,7Hunknown,11,0,;                                                     G      3
     186       1                                                00000000D      1
     186            -193       1       0                               0D      2
     186       2                                                00000000D      3
     186            -193       1       0                               0D      4
     186       3                                                00000000D      5
     186            -193       1       0                               0D      6
     514       4                                                00010000D      7
     514                       1       1                               0D      8
     514       5                                                00010000D      9
     514                       1       1                               0D     10
     514       6                                                00010000D     11
     514                       1       1                               0D     12
     510       7                                                00010000D     13
     510            -193       1       1                               0D     14
     510       8                                                00010000D     15
     510            -193       1       1                               0D     16
     510       9                                                00010000D     17
     510            -193       1       1                               0D     18
     510      10                                                00010000D     19
     510            -193       1       1                               0D     20
     510      11                                                00010000D     21
     510            -193       1       1                               0D     22
     510      12                                                00010000D     23
     510            -193       1       1                               0D     24
     510      13                                                00010000D     25
     510            -193       1       1                               0D     26
     510      14                                                00010000D     27
     510            -193       1       1                               0D     28
     510      15                                                00010000D     29
     510            -193       1       1                               0D     30
     510      16                                                00010000D     31
     510            -193       1       1                               0D     32
     510      17                                                00010000D     33
     510            -193       1       1                               0D     34
     510      18                                                00010000D     35
     510            -193       1       1                               0D     36
     510      19                                                00010000D     37
     510            -193       1       1                               0D     38
     510      20                                                00010000D     39
     510            -193       1       1                               0D     40
     510      21                                                00010000D     41
     510            -193       1       1                               0D     42
     508      22                                                00010000D     43
     508                       2       1                               0D     44
     508      24                                                00010000D     45
     508                       1       1                               0D     46
     508      25                                                00010000D     47
     508                       1       1                               0D     48
     508      26                                                00010000D     49
     508                       2       1                               0D     50
     508      28                                                00010000D     51
     508                       2       1                               0D     52
     508      30                                                00010000D     53
     508                       2       1                               0D     54
     508      32                                                00010000D     55
     508                       1       1                               0D     56
     508      33                                                00010000D     57
     508                       1       1                               0D     58
     508      34                                                00010000D     59
     508                       1       1                               0D     60
     508      35                                                00010000D     61
     508                       1       1                               0D     62
     508      36                                                00010000D     63
     508                       2       1                               0D     64
     508      38                                                00010000D     65
     508                       1       1                               0D     66
     508      39                                                00010000D     67
     508                       1       1                               0D     68
     508      40                                                00010000D     69
     508                       2       1                               0D     70
     508      42                                                00010000D     71
     508                       1       1                               0D     72
     508      43                                                00010000D     73
     508                       2       1                               0D     74
     508      45                                                00010000D     75
     508                       1       1                               0D     76
     508      46                                                00010000D     77
     508                       1       1                               0D     78
     508      47                                                00010000D     79
     508                       1       1                               0D     80
     126      48                                                00010000D     81
     126       0               5       0                               0D     82
     126      53                                                00010000D     83
     126       0               7       0                               0D     84
     126      60                                                00010000D     85
     126       0               3       0                               0D     86
     126      63                                                00010000D     87
     126       0               7       0                               0D     88
     126      70                                                00010000D     89
     126       0               5       0                               0D     90
     126      75                                                00010000D     91
     126       0              12       0                               0D     92
     126      87                                                00010000D     93
     126       0               7       0                               0D     94
     126      94                                                00010000D     95
     126       0               8       0                               0D     96
     126     102                                                00010000D     97
     126       0               4       0                               0D     98
     126     106                                                00010000D     99
     126       0               5       0                               0D    100
     126     111                                                00010000D    101
     126       0               7       0                               0D    102
     126     118                                                00010000D    103
     126       0               3       0                               0D    104
     126     121                                                00010000D    105
     126       0               5       0                               0D    106
     126     126                                                00010000D    107
     126       0               7       0                               0D    108
     126     133                                                00010000D    109
     126       0               2       0                               0D    110
     126     135                                                00010000D    111
     126       0               5       0                               0D    112
     126     140                                                00010000D    113
     126       0               7       0                               0D    114
     126     147                                                00010000D    115
     126       0               5       0                               0D    116
     126     152                                                00010000D    117
     126       0               7       0                               0D    118
     126     159                                                00010000D    119
     126       0               3       0                               0D    120
     126     162                                                00010000D    121
     126       0               5       0                               0D    122
     126     167                                                00010000D    123
     126       0               7       0                               0D    124
     126     174                                                00010000D    125
     126       0               5       0                               0D    126
     126     179                                                00010000D    127
     126       0               6       0                               0D    128
     126     185                                                00010000D    129
     126       0               3       0                               0D    130
     126     188                                                00010000D    131
     126       0               4       0                               0D    132
     126     192                                                00010000D    133
     126       0               6       0                               0D    134
     126     198                                                00010000D    135
     126       0               4       0                               0D    136
     126     202                                                00010000D    137
     126       0               6       0                               0D    138
     126     208                                                00010000D    139
     126       0               3       0                               0D    140
     126     211                                                00010000D    141
     126       0               4       0                               0D    142
     126     215                                                00010000D    143
     126       0               6       0                               0D    144
     128     221                                                00010000D    145
     128       0    -193      13       0                               0D    146
     128     234                                                00010000D    147
     128       0    -193       3       0                               0D    148
     128     237                                                00010000D    149
     128       0    -193      19       0                               0D    150
     128     256                                                00010000D    151
     128       0    -193      17       0                               0D    152
     128     273                                                00010000D    153
     128       0    -193      12       0                               0D    154
     128     285                                                00010000D    155
     128       0    -193       3       0                               0D    156
     128     288                                                00010000D    157
     128       0    -193       3       0                               0D    158
     128     291                                                00010000D    159
     128       0    -193      13       0                               0D    160
     128     304                                                00010000D    161
     128       0    -193       3       0                               0D    162
     128     307                                                00010000D    163
     128       0    -193       3       0                               0D    164
     128     310                                                00010000D    165
     128       0    -193      13       0                               0D    166
     128     323                                                00010000D    167
     128       0    -193       3       0                               0D    168
     128     326                                                00010000D    169
     128       0    -193      13       0                               0D    170
     128     339                                                00010000D    171
     128       0    -193       3       0                               0D    172
     128     342                                                00010000D    173
     128       0    -193       3       0                               0D    174
     502     345                                                00010000D    175
     502                       4       1                               0D    176
     502     349                                                00010000D    177
     502                       1       1                               0D    178
     502     350                                                00010000D    179
     502                       2       1                               0D    180
     504     352                                                00010001D    181
     504                       5       1                               0D    182
     504     357                                                00010001D    183
     504                       2       1                               0D    184
     504     359                                                00010001D    185
     504                       3       1                               0D    186
     406     362                                                00000000D    187
     406                       1      15                               0D    188
     406     363                                                00000000D    189
     406                       1      15                               0D    190
     406     364                                                00000000D    191
     406                       1      15                               0D    192
     314     365                                                00000200D    193
     314                       2       0                               0D    194
186,7,1,0,0,1,187;                                                     1P      1
186,9,1,0,0,1,189;                                                     3P      2
186,11,1,0,0,1,191;                                                    5P      3
514,7,13,1,15,1,17,1,19,1,21,1,23,1,25,1;                              7P      4
514,3,27,1,29,1,31,1;                                                  9P      5
514,5,33,1,35,1,37,1,39,1,41,1;                                       11P      6
510,145,1,1,43;                                                       13P      7
510,147,2,1,45,47;                                                    15P      8
510,149,1,1,49;                                                       17P      9
510,151,1,1,51;                                                       19P     10
510,153,1,1,53;                                                       21P     11
510,155,2,1,55,57;                                                    23P     12
510,157,2,1,59,61;                                                    25P     13
510,159,1,1,63;                                                       27P     14
510,161,1,1,65;                                                       29P     15
510,163,1,1,67;                                                       31P     16
510,165,1,1,69;                                                       33P     17
510,167,1,1,71;                                                       35P     18
510,169,1,1,73;                                                       37P     19
510,171,1,1,75;                                                       39P     20
510,173,2,1,77,79;                                                    41P     21
508,6,0,181,1,0,0,0,181,2,0,0,0,181,3,1,0,0,181,4,1,0,0,181,5,1,      43P     22
0,0,181,3,0,0;                                                        43P     23
508,2,0,181,5,0,0,0,181,4,0,0;                                        45P     24
508,1,0,181,6,0,0;                                                    47P     25
508,5,0,181,7,0,0,0,181,8,0,0,0,181,9,1,0,0,181,6,1,0,0,181,9,0,      49P     26
0;                                                                    49P     27
508,6,0,181,10,0,0,0,181,11,0,0,0,181,12,1,0,0,181,8,1,0,0,181,       51P     28
7,1,0,0,181,12,0,0;                                                   51P     29
508,6,0,181,13,0,0,0,181,14,0,0,0,181,15,1,0,0,181,16,0,0,0,181,      53P     30
17,0,0,0,181,15,0,0;                                                  53P     31
508,2,0,181,16,1,0,0,181,17,1,0;                                      55P     32
508,2,0,181,1,1,0,0,181,2,1,0;                                        57P     33
508,2,0,181,13,1,0,0,181,14,1,0;                                      59P     34
508,2,0,181,10,1,0,0,181,11,1,0;                                      61P     35
508,6,0,183,1,0,0,0,183,2,0,0,0,183,3,1,0,0,183,4,0,0,0,183,5,0,      63P     36
0,0,183,3,0,0;                                                        63P     37
508,2,0,183,4,1,0,0,183,5,1,0;                                        65P     38
508,2,0,183,1,1,0,0,183,2,1,0;                                        67P     39
508,6,0,185,1,0,0,0,185,2,0,0,0,185,3,1,0,0,185,4,0,0,0,185,5,0,      69P     40
0,0,185,3,0,0;                                                        69P     41
508,2,0,185,1,1,0,0,185,2,1,0;                                        71P     42
508,6,0,185,6,0,0,0,185,7,0,0,0,185,8,1,0,0,185,9,0,0,0,185,10,       73P     43
0,0,0,185,8,0,0;                                                      73P     44
508,2,0,185,9,1,0,0,185,10,1,0;                                       75P     45
508,2,0,185,6,1,0,0,185,7,1,0;                                        77P     46
508,2,0,185,4,1,0,0,185,5,1,0;                                        79P     47
126,4,2,0,0,0,0,0.,0.,0.,1.5707963267949,1.5707963267949,             81P     48
3.14159265358979,3.14159265358979,3.14159265358979,1.,                81P     49
0.707106781186548,1.,0.707106781186548,1.,29.,0.,0.,29.,29.,0.,       81P     50
1.77573785876366D-15,29.,0.,-29.,29.,0.,-29.,                         81P     51
3.55147571752732D-15,0.,0.,3.14159265358979,0.,0.,0.;                 81P     52
126,4,2,0,0,0,0,3.14159265358979,3.14159265358979,                    83P     53
3.14159265358979,4.71238898038469,4.71238898038469,                   83P     54
6.28318530717959,6.28318530717959,6.28318530717959,1.,                83P     55
0.707106781186548,1.,0.707106781186548,1.,-29.,                       83P     56
3.55147571752732D-15,0.,-29.,-29.,0.,-5.32721357629099D-15,-29.,      83P     57
0.,29.,-29.,0.,29.,-7.10295143505465D-15,0.,3.14159265358979,         83P     58
6.28318530717959,0.,0.,0.;                                            83P     59
126,1,1,0,0,1,0,-0.0172413793103448,-0.0172413793103448,              85P     60
0.0172413793103448,0.0172413793103448,1.,1.,-29.,0.,0.,-29.,0.,       85P     61
1.,-0.0172413793103448,0.0172413793103448,0.,0.,0.;                   85P     62
126,4,2,0,0,0,0,3.14159265358979,3.14159265358979,                    87P     63
3.14159265358979,4.71238898038469,4.71238898038469,                   87P     64
6.28318530717959,6.28318530717959,6.28318530717959,1.,                87P     65
0.707106781186548,1.,0.707106781186548,1.,-29.,                       87P     66
3.55147571752732D-15,1.,-29.,-29.,1.,-5.32721357629099D-15,-29.,      87P     67
1.,29.,-29.,1.,29.,-7.10295143505465D-15,1.,3.14159265358979,         87P     68
6.28318530717959,0.,0.,0.;                                            87P     69
126,4,2,0,0,0,0,0.,0.,0.,1.5707963267949,1.5707963267949,             89P     70
3.14159265358979,3.14159265358979,3.14159265358979,1.,                89P     71
0.707106781186548,1.,0.707106781186548,1.,29.,0.,1.,29.,29.,1.,       89P     72
1.77573785876366D-15,29.,1.,-29.,29.,1.,-29.,                         89P     73
3.55147571752732D-15,1.,0.,3.14159265358979,0.,0.,0.;                 89P     74
126,8,2,0,1,0,0,-3.14159265358979,-3.14159265358979,                  91P     75
-3.14159265358979,-1.5707963267949,-1.5707963267949,0.,0.,            91P     76
1.5707963267949,1.5707963267949,3.14159265358979,                     91P     77
3.14159265358979,3.14159265358979,1.,0.707106781186548,1.,            91P     78
0.707106781186548,1.,0.707106781186548,1.,0.707106781186548,1.,       91P     79
-17.3500436235464,2.1247675388643D-15,1.,-17.3500436235464,           91P     80
17.3500436235464,1.,-1.85031216974051D-16,17.3500436235464,1.,        91P     81
17.3500436235463,17.3500436235464,1.,17.3500436235463,0.,1.,          91P     82
17.3500436235463,-17.3500436235464,1.,-1.85031216974051D-16,          91P     83
-17.3500436235464,1.,-17.3500436235464,-17.3500436235464,1.,          91P     84
-17.3500436235464,-2.1247675388643D-15,1.,-3.14159265358979,          91P     85
3.14159265358979,0.,0.,0.;                                            91P     86
126,4,2,0,0,0,0,0.,0.,0.,1.5707963267949,1.5707963267949,             93P     87
3.14159265358979,3.14159265358979,3.14159265358979,1.,                93P     88
0.707106781186548,1.,0.707106781186548,1.,29.,0.,                     93P     89
8.00000000000001,29.,-29.,8.00000000000001,5.28322872357462D-16,      93P     90
-29.,8.00000000000001,-29.,-29.,8.00000000000001,-29.,                93P     91
-3.55147571752732D-15,8.00000000000001,0.,3.14159265358979,0.,        93P     92
0.,0.;                                                                93P     93
126,4,2,0,0,0,0,3.14159265358979,3.14159265358979,                    95P     94
3.14159265358979,4.71238898038469,4.71238898038469,                   95P     95
6.28318530717959,6.28318530717959,6.28318530717959,1.,                95P     96
0.707106781186548,1.,0.707106781186548,1.,-29.,                       95P     97
-3.55147571752732D-15,8.00000000000001,-29.,29.,                      95P     98
8.00000000000001,-6.57462856269719D-15,29.,8.00000000000001,29.,      95P     99
29.,8.00000000000001,29.,7.10295143505465D-15,8.00000000000001,       95P    100
3.14159265358979,6.28318530717959,0.,0.,0.;                           95P    101
126,1,1,0,0,1,0,-1.16663339721533,-1.16663339721533,                  97P    102
-0.229307315499984,-0.229307315499984,1.,1.,-29.,0.,                  97P    103
8.00000000000001,-17.3500436235464,0.,1.,-1.16663339721533,           97P    104
-0.229307315499984,0.,0.,0.;                                          97P    105
126,4,2,0,0,0,0,0.,0.,0.,1.5707963267949,1.5707963267949,             99P    106
3.14159265358979,3.14159265358979,3.14159265358979,1.,                99P    107
0.707106781186548,1.,0.707106781186548,1.,29.,0.,108.,29.,-29.,       99P    108
108.,5.28322872357462D-16,-29.,108.,-29.,-29.,108.,-29.,              99P    109
-3.55147571752732D-15,108.,0.,3.14159265358979,0.,0.,0.;              99P    110
126,4,2,0,0,0,0,3.14159265358979,3.14159265358979,                   101P    111
3.14159265358979,4.71238898038469,4.71238898038469,                  101P    112
6.28318530717959,6.28318530717959,6.28318530717959,1.,               101P    113
0.707106781186548,1.,0.707106781186548,1.,-29.,                      101P    114
-3.55147571752732D-15,108.,-29.,29.,108.,-6.57462856269719D-15,      101P    115
29.,108.,29.,29.,108.,29.,7.10295143505465D-15,108.,                 101P    116
3.14159265358979,6.28318530717959,0.,0.,0.;                          101P    117
126,1,1,0,0,1,0,-1.72413793103448,-1.72413793103448,                 103P    118
1.72413793103448,1.72413793103448,1.,1.,-29.,0.,108.,-29.,0.,        103P    119
8.00000000000001,-1.72413793103448,1.72413793103448,0.,0.,0.;        103P    120
126,4,2,0,0,0,0,0.,0.,0.,1.5707963267949,1.5707963267949,            105P    121
3.14159265358979,3.14159265358979,3.14159265358979,1.,               105P    122
0.707106781186548,1.,0.707106781186548,1.,32.,0.,108.,32.,32.,       105P    123
108.,1.95943487863577D-15,32.,108.,-32.,32.,108.,-32.,               105P    124
3.91886975727153D-15,108.,0.,3.14159265358979,0.,0.,0.;              105P    125
126,4,2,0,0,0,0,3.14159265358979,3.14159265358979,                   107P    126
3.14159265358979,4.71238898038469,4.71238898038469,                  107P    127
6.28318530717959,6.28318530717959,6.28318530717959,1.,               107P    128
0.707106781186548,1.,0.707106781186547,1.,-32.,                      107P    129
3.91886975727153D-15,108.,-32.,-32.,108.,-5.8783046359073D-15,       107P    130
-32.,108.,32.,-32.,108.,32.,-7.83773951454306D-15,108.,              107P    131
3.14159265358979,6.28318530717959,0.,0.,0.;                          107P    132
126,1,1,0,0,1,0,-1.6875,-1.6875,1.6875,1.6875,1.,1.,-32.,0.,         109P    133
108.,-32.,0.,0.,-1.6875,1.6875,0.,0.,0.;                             109P    134
126,4,2,0,0,0,0,0.,0.,0.,1.5707963267949,1.5707963267949,            111P    135
3.14159265358979,3.14159265358979,3.14159265358979,1.,               111P    136
0.707106781186548,1.,0.707106781186548,1.,32.,0.,0.,32.,-32.,0.,     111P    137
1.95943487863577D-15,-32.,0.,-32.,-32.,0.,-32.,                      111P    138
-3.91886975727153D-15,0.,0.,3.14159265358979,0.,0.,0.;               111P    139
126,4,2,0,0,0,0,3.14159265358979,3.14159265358979,                   113P    140
3.14159265358979,4.71238898038469,4.71238898038469,                  113P    141
6.28318530717959,6.28318530717959,6.28318530717959,1.,               113P    142
0.707106781186548,1.,0.707106781186547,1.,-32.,                      113P    143
-3.91886975727153D-15,0.,-32.,32.,0.,-5.8783046359073D-15,32.,       113P    144
0.,32.,32.,0.,32.,7.83773951454306D-15,0.,3.14159265358979,          113P    145
6.28318530717959,0.,0.,0.;                                           113P    146
126,4,2,0,0,0,0,0.,0.,0.,1.5707963267949,1.5707963267949,            115P    147
3.14159265358979,3.14159265358979,3.14159265358979,1.,               115P    148
0.707106781186548,1.,0.707106781186548,1.,29.,0.,5.,29.,29.,5.,      115P    149
1.77573785876366D-15,29.,5.,-29.,29.,5.,-29.,                        115P    150
3.55147571752732D-15,5.,0.,3.14159265358979,0.,0.,0.;                115P    151
126,4,2,0,0,0,0,3.14159265358979,3.14159265358979,                   117P    152
3.14159265358979,4.71238898038469,4.71238898038469,                  117P    153
6.28318530717959,6.28318530717959,6.28318530717959,1.,               117P    154
0.707106781186548,1.,0.707106781186548,1.,-29.,                      117P    155
3.55147571752732D-15,5.,-29.,-29.,5.,-5.32721357629099D-15,-29.,     117P    156
5.,29.,-29.,5.,29.,-7.10295143505465D-15,5.,3.14159265358979,        117P    157
6.28318530717959,0.,0.,0.;                                           117P    158
126,1,1,0,0,1,0,-0.0862068965517241,-0.0862068965517241,             119P    159
0.0862068965517241,0.0862068965517241,1.,1.,-29.,0.,5.,-29.,0.,      119P    160
0.,-0.0862068965517241,0.0862068965517241,0.,0.,0.;                  119P    161
126,4,2,0,0,0,0,0.,0.,0.,1.5707963267949,1.5707963267949,            121P    162
3.14159265358979,3.14159265358979,3.14159265358979,1.,               121P    163
0.707106781186548,1.,0.707106781186548,1.,29.,0.,0.,29.,-29.,0.,     121P    164
1.77573785876366D-15,-29.,0.,-29.,-29.,0.,-29.,                      121P    165
-3.55147571752732D-15,0.,0.,3.14159265358979,0.,0.,0.;               121P    166
126,4,2,0,0,0,0,3.14159265358979,3.14159265358979,                   123P    167
3.14159265358979,4.71238898038469,4.71238898038469,                  123P    168
6.28318530717959,6.28318530717959,6.28318530717959,1.,               123P    169
0.707106781186548,1.,0.707106781186548,1.,-29.,                      123P    170
-3.55147571752732D-15,0.,-29.,29.,0.,-5.32721357629099D-15,29.,      123P    171
0.,29.,29.,0.,29.,7.10295143505465D-15,0.,3.14159265358979,          123P    172
6.28318530717959,0.,0.,0.;                                           123P    173
126,4,2,0,0,0,0,0.,0.,0.,1.5707963267949,1.5707963267949,            125P    174
3.14159265358979,3.14159265358979,3.14159265358979,1.,               125P    175
0.707106781186548,1.,0.707106781186548,1.,79.,50.,11.,79.,79.,       125P    176
11.,50.,79.,11.,21.,79.,11.,21.,50.,11.,0.,3.14159265358979,0.,      125P    177
0.,0.;                                                               125P    178
126,4,2,0,0,0,0,3.14159265358979,3.14159265358979,                   127P    179
3.14159265358979,4.71238898038469,4.71238898038469,                  127P    180
6.28318530717959,6.28318530717959,6.28318530717959,1.,               127P    181
0.707106781186548,1.,0.707106781186548,1.,21.,50.,11.,21.,21.,       127P    182
11.,50.,21.,11.,79.,21.,11.,79.,50.,11.,3.14159265358979,            127P    183
6.28318530717959,0.,0.,0.;                                           127P    184
126,1,1,0,0,1,0,-0.137931034482759,-0.137931034482759,               129P    185
0.137931034482759,0.137931034482759,1.,1.,21.,50.,11.,21.,50.,       129P    186
3.,-0.137931034482759,0.137931034482759,0.,0.,0.;                    129P    187
126,4,2,0,0,0,0,0.,0.,0.,1.5707963267949,1.5707963267949,            131P    188
3.14159265358979,3.14159265358979,3.14159265358979,1.,               131P    189
0.707106781186548,1.,0.707106781186548,1.,79.,50.,3.,79.,21.,3.,     131P    190
50.,21.,3.,21.,21.,3.,21.,50.,3.,0.,3.14159265358979,0.,0.,0.;       131P    191
126,4,2,0,0,0,0,3.14159265358979,3.14159265358979,                   133P    192
3.14159265358979,4.71238898038469,4.71238898038469,                  133P    193
6.28318530717959,6.28318530717959,6.28318530717959,1.,               133P    194
0.707106781186547,1.,0.707106781186548,1.,21.,50.,3.,21.,79.,3.,     133P    195
50.,79.,3.,79.,79.,3.,79.,50.,3.,3.14159265358979,                   133P    196
6.28318530717959,0.,0.,0.;                                           133P    197
126,4,2,0,0,0,0,0.,0.,0.,1.5707963267949,1.5707963267949,            135P    198
3.14159265358979,3.14159265358979,3.14159265358979,1.,               135P    199
0.707106781186548,1.,0.707106781186548,1.,83.,50.,3.,83.,83.,3.,     135P    200
50.,83.,3.,17.,83.,3.,17.,50.,3.,0.,3.14159265358979,0.,0.,0.;       135P    201
126,4,2,0,0,0,0,3.14159265358979,3.14159265358979,                   137P    202
3.14159265358979,4.71238898038469,4.71238898038469,                  137P    203
6.28318530717959,6.28318530717959,6.28318530717959,1.,               137P    204
0.707106781186548,1.,0.707106781186547,1.,17.,50.,3.,17.,17.,3.,     137P    205
50.,17.,3.,83.,17.,3.,83.,50.,3.,3.14159265358979,                   137P    206
6.28318530717959,0.,0.,0.;                                           137P    207
126,1,1,0,0,1,0,-0.0454545454545455,-0.0454545454545455,             139P    208
0.0454545454545455,0.0454545454545455,1.,1.,17.,50.,3.,17.,50.,      139P    209
0.,-0.0454545454545455,0.0454545454545455,0.,0.,0.;                  139P    210
126,4,2,0,0,0,0,0.,0.,0.,1.5707963267949,1.5707963267949,            141P    211
3.14159265358979,3.14159265358979,3.14159265358979,1.,               141P    212
0.707106781186548,1.,0.707106781186548,1.,83.,50.,0.,83.,17.,0.,     141P    213
50.,17.,0.,17.,17.,0.,17.,50.,0.,0.,3.14159265358979,0.,0.,0.;       141P    214
126,4,2,0,0,0,0,3.14159265358979,3.14159265358979,                   143P    215
3.14159265358979,4.71238898038469,4.71238898038469,                  143P    216
6.28318530717959,6.28318530717959,6.28318530717959,1.,               143P    217
0.707106781186547,1.,0.707106781186546,1.,17.,50.,0.,17.,83.,0.,     143P    218
50.,83.,0.,83.,83.,0.,83.,50.,0.,3.14159265358979,                   143P    219
6.28318530717959,0.,0.,0.;                                           143P    220
128,1,8,1,2,0,1,0,0,1,-0.0172413793103448,-0.0172413793103448,       145P    221
0.0172413793103448,0.0172413793103448,-3.14159265358979,             145P    222
-3.14159265358979,-3.14159265358979,-1.5707963267949,                145P    223
-1.5707963267949,0.,0.,1.5707963267949,1.5707963267949,              145P    224
3.14159265358979,3.14159265358979,3.14159265358979,1.,1.,            145P    225
0.707106781186548,0.707106781186548,1.,1.,0.707106781186548,         145P    226
0.707106781186548,1.,1.,0.707106781186548,0.707106781186548,1.,      145P    227
1.,0.707106781186548,0.707106781186548,1.,1.,-29.,0.,0.,-29.,0.,     145P    228
1.,-29.,-29.,0.,-29.,-29.,1.,0.,-29.,0.,0.,-29.,1.,29.,-29.,0.,      145P    229
29.,-29.,1.,29.,0.,0.,29.,0.,1.,29.,29.,0.,29.,29.,1.,0.,29.,0.,     145P    230
0.,29.,1.,-29.,29.,0.,-29.,29.,1.,-29.,0.,0.,-29.,0.,1.,             145P    231
-0.0172413793103448,0.0172413793103448,-3.14159265358979,            145P    232
3.14159265358979;                                                    145P    233
128,1,1,1,1,0,0,1,0,0,-2.901,-2.901,2.901,2.901,-2.901,-2.901,       147P    234
2.901,2.901,1.,1.,1.,1.,29.01,-29.01,1.,-29.01,-29.01,1.,29.01,      147P    235
29.01,1.,-29.01,29.01,1.,-2.901,2.901,-2.901,2.901;                  147P    236
128,1,8,1,2,0,1,0,0,1,-1.16663339721533,-1.16663339721533,           149P    237
-0.229307315499984,-0.229307315499984,-3.14159265358979,             149P    238
-3.14159265358979,-3.14159265358979,-1.5707963267949,                149P    239
-1.5707963267949,0.,0.,1.5707963267949,1.5707963267949,              149P    240
3.14159265358979,3.14159265358979,3.14159265358979,1.,1.,            149P    241
0.707106781186548,0.707106781186548,1.,1.,0.707106781186548,         149P    242
0.707106781186548,1.,1.,0.707106781186548,0.707106781186548,1.,      149P    243
1.,0.707106781186548,0.707106781186548,1.,1.,-29.,0.,                149P    244
8.00000000000001,-17.3500436235464,0.,1.,-29.,29.,                   149P    245
8.00000000000001,-17.3500436235463,17.3500436235463,1.,              149P    246
-1.2474149864062D-15,29.,8.00000000000001,-1.2474149864062D-15,      149P    247
17.3500436235464,1.,29.,29.,8.00000000000001,17.3500436235463,       149P    248
17.3500436235463,1.,29.,0.,8.00000000000001,17.3500436235463,0.,     149P    249
1.,29.,-29.,8.00000000000001,17.3500436235463,-17.3500436235463,     149P    250
1.,-1.2474149864062D-15,-29.,8.00000000000001,                       149P    251
-1.2474149864062D-15,-17.3500436235464,1.,-29.,-29.,                 149P    252
8.00000000000001,-17.3500436235463,-17.3500436235463,1.,-29.,0.,     149P    253
8.00000000000001,-17.3500436235464,0.,1.,-1.16663339721533,          149P    254
-0.229307315499984,-3.14159265358979,3.14159265358979;               149P    255
128,1,8,1,2,0,1,0,0,1,-1.72413793103448,-1.72413793103448,           151P    256
1.72413793103448,1.72413793103448,-3.14159265358979,                 151P    257
-3.14159265358979,-3.14159265358979,-1.5707963267949,                151P    258
-1.5707963267949,0.,0.,1.5707963267949,1.5707963267949,              151P    259
3.14159265358979,3.14159265358979,3.14159265358979,1.,1.,            151P    260
0.707106781186548,0.707106781186548,1.,1.,0.707106781186548,         151P    261
0.707106781186548,1.,1.,0.707106781186548,0.707106781186548,1.,      151P    262
1.,0.707106781186548,0.707106781186548,1.,1.,-29.,0.,108.,-29.,      151P    263
0.,8.00000000000001,-29.,29.,108.,-29.,29.,8.00000000000001,         151P    264
-1.2474149864062D-15,29.,108.,-1.2474149864062D-15,29.,              151P    265
8.00000000000001,29.,29.,108.,29.,29.,8.00000000000001,29.,0.,       151P    266
108.,29.,0.,8.00000000000001,29.,-29.,108.,29.,-29.,                 151P    267
8.00000000000001,-1.2474149864062D-15,-29.,108.,                     151P    268
-1.2474149864062D-15,-29.,8.00000000000001,-29.,-29.,108.,-29.,      151P    269
-29.,8.00000000000001,-29.,0.,108.,-29.,0.,8.00000000000001,         151P    270
-1.72413793103448,1.72413793103448,-3.14159265358979,                151P    271
3.14159265358979;                                                    151P    272
128,1,8,1,2,0,1,0,0,1,-1.6875,-1.6875,1.6875,1.6875,                 153P    273
-3.14159265358979,-3.14159265358979,-3.14159265358979,               153P    274
-1.5707963267949,-1.5707963267949,0.,0.,1.5707963267949,             153P    275
1.5707963267949,3.14159265358979,3.14159265358979,                   153P    276
3.14159265358979,1.,1.,0.707106781186548,0.707106781186548,1.,       153P    277
1.,0.707106781186548,0.707106781186548,1.,1.,0.707106781186548,      153P    278
0.707106781186548,1.,1.,0.707106781186548,0.707106781186548,1.,      153P    279
1.,-32.,0.,108.,-32.,0.,0.,-32.,-32.,108.,-32.,-32.,0.,0.,-32.,      153P    280
108.,0.,-32.,0.,32.,-32.,108.,32.,-32.,0.,32.,0.,108.,32.,0.,0.,     153P    281
32.,32.,108.,32.,32.,0.,0.,32.,108.,0.,32.,0.,-32.,32.,108.,         153P    282
-32.,32.,0.,-32.,0.,108.,-32.,0.,0.,-1.6875,1.6875,                  153P    283
-3.14159265358979,3.14159265358979;                                  153P    284
128,1,1,1,1,0,0,1,0,0,-3.201,-3.201,3.201,3.201,-3.201,-3.201,       155P    285
3.201,3.201,1.,1.,1.,1.,32.01,-32.01,0.,-32.01,-32.01,0.,32.01,      155P    286
32.01,0.,-32.01,32.01,0.,-3.201,3.201,-3.201,3.201;                  155P    287
128,1,1,1,1,0,0,1,0,0,-3.201,-3.201,3.201,3.201,-3.201,-3.201,       157P    288
3.201,3.201,1.,1.,1.,1.,-32.01,-32.01,108.,32.01,-32.01,108.,        157P    289
-32.01,32.01,108.,32.01,32.01,108.,-3.201,3.201,-3.201,3.201;        157P    290
128,1,8,1,2,0,1,0,0,1,-0.0862068965517241,-0.0862068965517241,       159P    291
0.0862068965517241,0.0862068965517241,-3.14159265358979,             159P    292
-3.14159265358979,-3.14159265358979,-1.5707963267949,                159P    293
-1.5707963267949,0.,0.,1.5707963267949,1.5707963267949,              159P    294
3.14159265358979,3.14159265358979,3.14159265358979,1.,1.,            159P    295
0.707106781186548,0.707106781186548,1.,1.,0.707106781186548,         159P    296
0.707106781186548,1.,1.,0.707106781186548,0.707106781186548,1.,      159P    297
1.,0.707106781186548,0.707106781186548,1.,1.,-29.,0.,5.,-29.,0.,     159P    298
0.,-29.,-29.,5.,-29.,-29.,0.,0.,-29.,5.,0.,-29.,0.,29.,-29.,5.,      159P    299
29.,-29.,0.,29.,0.,5.,29.,0.,0.,29.,29.,5.,29.,29.,0.,0.,29.,5.,     159P    300
0.,29.,0.,-29.,29.,5.,-29.,29.,0.,-29.,0.,5.,-29.,0.,0.,             159P    301
-0.0862068965517241,0.0862068965517241,-3.14159265358979,            159P    302
3.14159265358979;                                                    159P    303
128,1,1,1,1,0,0,1,0,0,-2.901,-2.901,2.901,2.901,-2.901,-2.901,       161P    304
2.901,2.901,1.,1.,1.,1.,29.01,-29.01,0.,-29.01,-29.01,0.,29.01,      161P    305
29.01,0.,-29.01,29.01,0.,-2.901,2.901,-2.901,2.901;                  161P    306
128,1,1,1,1,0,0,1,0,0,-2.901,-2.901,2.901,2.901,-2.901,-2.901,       163P    307
2.901,2.901,1.,1.,1.,1.,-29.01,-29.01,5.,29.01,-29.01,5.,-29.01,     163P    308
29.01,5.,29.01,29.01,5.,-2.901,2.901,-2.901,2.901;                   163P    309
128,1,8,1,2,0,1,0,0,1,-0.137931034482759,-0.137931034482759,         165P    310
0.137931034482759,0.137931034482759,-3.14159265358979,               165P    311
-3.14159265358979,-3.14159265358979,-1.5707963267949,                165P    312
-1.5707963267949,0.,0.,1.5707963267949,1.5707963267949,              165P    313
3.14159265358979,3.14159265358979,3.14159265358979,1.,1.,            165P    314
0.707106781186548,0.707106781186548,1.,1.,0.707106781186548,         165P    315
0.707106781186548,1.,1.,0.707106781186548,0.707106781186548,1.,      165P    316
1.,0.707106781186548,0.707106781186548,1.,1.,21.,50.,11.,21.,        165P    317
50.,3.,21.,21.,11.,21.,21.,3.,50.,21.,11.,50.,21.,3.,79.,21.,        165P    318
11.,79.,21.,3.,79.,50.,11.,79.,50.,3.,79.,79.,11.,79.,79.,3.,        165P    319
50.,79.,11.,50.,79.,3.,21.,79.,11.,21.,79.,3.,21.,50.,11.,21.,       165P    320
50.,3.,-0.137931034482759,0.137931034482759,-3.14159265358979,       165P    321
3.14159265358979;                                                    165P    322
128,1,1,1,1,0,0,1,0,0,-2.901,-2.901,2.901,2.901,-2.901,-2.901,       167P    323
2.901,2.901,1.,1.,1.,1.,20.99,20.99,11.,79.01,20.99,11.,20.99,       167P    324
79.01,11.,79.01,79.01,11.,-2.901,2.901,-2.901,2.901;                 167P    325
128,1,8,1,2,0,1,0,0,1,-0.0454545454545455,-0.0454545454545455,       169P    326
0.0454545454545455,0.0454545454545455,-3.14159265358979,             169P    327
-3.14159265358979,-3.14159265358979,-1.5707963267949,                169P    328
-1.5707963267949,0.,0.,1.5707963267949,1.5707963267949,              169P    329
3.14159265358979,3.14159265358979,3.14159265358979,1.,1.,            169P    330
0.707106781186548,0.707106781186548,1.,1.,0.707106781186548,         169P    331
0.707106781186548,1.,1.,0.707106781186548,0.707106781186548,1.,      169P    332
1.,0.707106781186548,0.707106781186548,1.,1.,17.,50.,3.,17.,50.,     169P    333
0.,17.,17.,3.,17.,17.,0.,50.,17.,3.,50.,17.,0.,83.,17.,3.,83.,       169P    334
17.,0.,83.,50.,3.,83.,50.,0.,83.,83.,3.,83.,83.,0.,50.,83.,3.,       169P    335
50.,83.,0.,17.,83.,3.,17.,83.,0.,17.,50.,3.,17.,50.,0.,              169P    336
-0.0454545454545455,0.0454545454545455,-3.14159265358979,            169P    337
3.14159265358979;                                                    169P    338
128,1,1,1,1,0,0,1,0,0,-3.301,-3.301,3.301,3.301,-3.301,-3.301,       171P    339
3.301,3.301,1.,1.,1.,1.,83.01,16.99,0.,16.99,16.99,0.,83.01,         171P    340
83.01,0.,16.99,83.01,0.,-3.301,3.301,-3.301,3.301;                   171P    341
128,1,1,1,1,0,0,1,0,0,-3.301,-3.301,3.301,3.301,-3.301,-3.301,       173P    342
3.301,3.301,1.,1.,1.,1.,16.99,16.99,3.,83.01,16.99,3.,16.99,         173P    343
83.01,3.,83.01,83.01,3.,-3.301,3.301,-3.301,3.301;                   173P    344
502,13,29.,0.,0.,-29.,0.,0.,-29.,0.,1.,29.,0.,1.,                    175P    345
-17.3500436235464,2.1247675388643D-15,1.,29.,0.,                     175P    346
8.00000000000001,-29.,0.,8.00000000000001,29.,0.,108.,-29.,0.,       175P    347
108.,32.,0.,108.,-32.,0.,108.,-32.,0.,0.,32.,0.,0.;                  175P    348
502,4,29.,0.,5.,-29.,0.,5.,-29.,0.,0.,29.,0.,0.;                     177P    349
502,8,79.,50.,11.,21.,50.,11.,21.,50.,3.,79.,50.,3.,83.,50.,3.,      179P    350
17.,50.,3.,17.,50.,0.,83.,50.,0.;                                    179P    351
504,17,81,175,1,175,2,83,175,2,175,1,85,175,2,175,3,87,175,3,        181P    352
175,4,89,175,4,175,3,91,175,5,175,5,93,175,6,175,7,95,175,7,175,     181P    353
6,97,175,7,175,5,99,175,8,175,9,101,175,9,175,8,103,175,9,175,7,     181P    354
105,175,10,175,11,107,175,11,175,10,109,175,11,175,12,111,175,       181P    355
13,175,12,113,175,12,175,13;                                         181P    356
504,5,115,177,1,177,2,117,177,2,177,1,119,177,2,177,3,121,177,4,     183P    357
177,3,123,177,3,177,4;                                               183P    358
504,10,125,179,1,179,2,127,179,2,179,1,129,179,2,179,3,131,179,      185P    359
4,179,3,133,179,3,179,4,135,179,5,179,6,137,179,6,179,5,139,179,     185P    360
6,179,7,141,179,8,179,7,143,179,7,179,8;                             185P    361
406,1,5HBody1;                                                       187P    362
406,1,5HBody2;                                                       189P    363
406,1,5HBody5;                                                       191P    364
314,62.7450980392157,62.7450980392157,62.7450980392157,13HSteel      193P    365
- Satin;                                                             193P    366
S      1G      3D    194P    366                                        T      1
